<svg width="40" height="40" viewBox="0 0 40 40" fill="none" xmlns="http://www.w3.org/2000/svg">
<path d="M25.2609 26.2573L27.818 19.5926C27.8666 19.467 28.023 19.4675 28.0709 19.5934L30.5953 26.2573M25.2609 26.2573L24.2889 28.8567M25.2609 26.2573H30.5953M30.5953 26.2573L31.5673 28.8567M18.83 33.3624C17.5858 33.3624 16.5771 32.3538 16.5771 31.1096V19.4987H20.9096C23.0758 19.412 23.509 18.199 23.4224 16.2061H37.0262C38.2704 16.2061 39.279 17.2147 39.279 18.4589V31.1096C39.279 32.3538 38.2704 33.3624 37.0262 33.3624H34.7733V37.0017C34.7733 37.5216 34.3401 37.6082 33.9935 37.3483L29.7477 33.3624H18.83Z" stroke="#CCCCCC" stroke-linecap="round"/>
<path d="M6.4395 8.30355C6.16336 8.30355 5.9395 8.52741 5.9395 8.80355C5.9395 9.0797 6.16336 9.30355 6.4395 9.30355V8.30355ZM12.6431 5.80871C12.6431 5.53257 12.4193 5.30871 12.1431 5.30871C11.867 5.30871 11.6431 5.53257 11.6431 5.80871H12.6431ZM17.8468 9.30355C18.1229 9.30355 18.3468 9.0797 18.3468 8.80355C18.3468 8.52741 18.1229 8.30355 17.8468 8.30355V9.30355ZM8.24201 15.7411C7.98499 15.8421 7.85849 16.1323 7.95946 16.3894C8.06043 16.6464 8.35064 16.7729 8.60766 16.6719L8.24201 15.7411ZM12.5638 13.3126L12.9091 13.6742L12.5638 13.3126ZM15.59 16.663C15.8421 16.7757 16.1379 16.6627 16.2506 16.4106C16.3633 16.1586 16.2503 15.8628 15.9983 15.7501L15.59 16.663ZM12.1431 14.0193L12.4819 13.6516H12.4819L12.1431 14.0193ZM10.3474 10.6896C10.2182 10.4455 9.9156 10.3524 9.67154 10.4816C9.42747 10.6107 9.33433 10.9133 9.46351 11.1574L10.3474 10.6896ZM4.53324 19.4992H5.03324V18.9992H4.53324V19.4992ZM5.48637 23.3983L5.79872 23.7888L5.81819 23.7732L5.83602 23.7558L5.48637 23.3983ZM9.4722 19.4992V18.9992H9.2683L9.12255 19.1417L9.4722 19.4992ZM6.4395 9.30355H12.1431V8.30355H6.4395V9.30355ZM12.6431 8.80355V5.80871H11.6431V8.80355H12.6431ZM12.1431 9.30355H14.995V8.30355H12.1431V9.30355ZM14.995 9.30355H17.8468V8.30355H14.995V9.30355ZM8.42484 16.2065C8.60766 16.6719 8.60779 16.6719 8.60792 16.6718C8.60798 16.6718 8.60811 16.6717 8.60822 16.6717C8.60843 16.6716 8.60866 16.6715 8.60892 16.6714C8.60943 16.6712 8.61004 16.671 8.61074 16.6707C8.61215 16.6701 8.61394 16.6694 8.6161 16.6685C8.62042 16.6668 8.62625 16.6644 8.63354 16.6614C8.64812 16.6554 8.66856 16.6468 8.69459 16.6356C8.74665 16.613 8.82105 16.5797 8.91554 16.5346C9.1045 16.4444 9.37393 16.3071 9.70573 16.1145C10.3693 15.7294 11.2829 15.1229 12.3014 14.2304L11.6424 13.4783C10.6779 14.3235 9.81798 14.8931 9.20373 15.2496C8.89665 15.4279 8.65113 15.5528 8.48486 15.6321C8.40174 15.6718 8.33846 15.7 8.29724 15.7179C8.27663 15.7268 8.26153 15.7331 8.25224 15.737C8.24759 15.7389 8.24439 15.7402 8.24267 15.7409C8.24181 15.7412 8.24133 15.7414 8.24122 15.7415C8.24116 15.7415 8.2412 15.7415 8.24133 15.7414C8.2414 15.7414 8.24149 15.7414 8.2416 15.7413C8.24166 15.7413 8.24176 15.7412 8.24179 15.7412C8.2419 15.7412 8.24201 15.7411 8.42484 16.2065ZM12.3014 14.2304C12.5004 14.056 12.7033 13.8708 12.9091 13.6742L12.2184 12.9511C12.0231 13.1376 11.8307 13.3132 11.6424 13.4783L12.3014 14.2304ZM12.9091 13.6742C14.099 12.5376 14.7444 11.3435 15.0922 10.4281C15.266 9.97069 15.3656 9.58256 15.4221 9.30496C15.4503 9.16609 15.4679 9.05462 15.4785 8.97566C15.4838 8.93617 15.4874 8.90478 15.4898 8.88213C15.4909 8.8708 15.4918 8.86165 15.4924 8.85476C15.4927 8.85132 15.493 8.84844 15.4932 8.84613C15.4932 8.84498 15.4933 8.84397 15.4934 8.84311C15.4934 8.84267 15.4935 8.84228 15.4935 8.84192C15.4935 8.84174 15.4935 8.8415 15.4935 8.84141C15.4935 8.84117 15.4936 8.84095 14.995 8.80355C14.4964 8.76616 14.4964 8.76595 14.4964 8.76575C14.4964 8.7657 14.4964 8.76551 14.4964 8.7654C14.4964 8.76519 14.4964 8.76501 14.4965 8.76486C14.4965 8.76457 14.4965 8.76442 14.4965 8.7644C14.4965 8.76438 14.4965 8.76491 14.4964 8.76599C14.4962 8.76815 14.4958 8.77249 14.4951 8.77894C14.4938 8.79184 14.4914 8.81316 14.4874 8.84228C14.4796 8.90055 14.4657 8.98993 14.4422 9.10554C14.3951 9.33689 14.3096 9.67224 14.1574 10.0729C13.8532 10.8736 13.283 11.9341 12.2184 12.9511L12.9091 13.6742ZM15.7941 16.2065C15.9983 15.7501 15.9983 15.7501 15.9983 15.7501C15.9983 15.7501 15.9983 15.7501 15.9983 15.7501C15.9983 15.7501 15.9982 15.7501 15.9981 15.75C15.998 15.7499 15.9976 15.7498 15.9971 15.7496C15.9962 15.7491 15.9946 15.7484 15.9925 15.7475C15.9882 15.7456 15.9816 15.7426 15.9729 15.7386C15.9554 15.7307 15.9292 15.7187 15.8952 15.7029C15.8271 15.6715 15.728 15.625 15.6051 15.5658C15.3592 15.4473 15.0192 15.2783 14.644 15.0766C13.8813 14.6666 13.017 14.1445 12.4819 13.6516L11.8043 14.387C12.4389 14.9716 13.4 15.5432 14.1705 15.9574C14.5618 16.1678 14.9153 16.3435 15.1711 16.4668C15.2992 16.5284 15.4031 16.5771 15.4753 16.6105C15.5114 16.6272 15.5397 16.6402 15.5591 16.649C15.5688 16.6534 15.5763 16.6568 15.5815 16.6591C15.5841 16.6603 15.5861 16.6612 15.5876 16.6619C15.5883 16.6622 15.5888 16.6624 15.5892 16.6626C15.5895 16.6627 15.5896 16.6628 15.5898 16.6628C15.5898 16.6629 15.5899 16.6629 15.5899 16.6629C15.59 16.6629 15.59 16.663 15.7941 16.2065ZM12.4819 13.6516C12.4303 13.604 12.3784 13.5539 12.3263 13.5016L11.6175 14.207C11.679 14.2687 11.7413 14.3289 11.8043 14.387L12.4819 13.6516ZM12.3263 13.5016C11.814 12.9869 11.3201 12.2898 10.9476 11.7055C10.7632 11.4163 10.6122 11.1606 10.5076 10.9777C10.4553 10.8863 10.4147 10.8133 10.3875 10.7636C10.3738 10.7387 10.3635 10.7197 10.3568 10.7072C10.3534 10.7009 10.3509 10.6963 10.3493 10.6933C10.3485 10.6918 10.348 10.6908 10.3476 10.6902C10.3475 10.6898 10.3474 10.6896 10.3473 10.6896C10.3473 10.6895 10.3473 10.6895 10.3473 10.6895C10.3473 10.6895 10.3473 10.6895 10.3473 10.6895C10.3473 10.6896 10.3474 10.6896 9.90543 10.9235C9.46351 11.1574 9.46353 11.1574 9.46357 11.1575C9.46358 11.1575 9.46362 11.1576 9.46365 11.1577C9.46371 11.1578 9.46379 11.1579 9.46388 11.1581C9.46407 11.1585 9.46431 11.1589 9.46462 11.1595C9.46522 11.1606 9.46606 11.1622 9.46714 11.1642C9.46928 11.1682 9.47235 11.174 9.47631 11.1813C9.48425 11.1961 9.49578 11.2173 9.51071 11.2446C9.54057 11.299 9.58406 11.3772 9.63954 11.4742C9.7504 11.668 9.9097 11.9378 10.1044 12.2431C10.4899 12.8478 11.0293 13.6161 11.6175 14.207L12.3263 13.5016ZM2.97356 2.84277H21.1697V1.84277H2.97356V2.84277ZM22.9226 4.59563V17.2463H23.9226V4.59563H22.9226ZM1.2207 17.2463V4.59563H0.220703V17.2463H1.2207ZM2.97356 18.9992C2.00549 18.9992 1.2207 18.2144 1.2207 17.2463H0.220703C0.220703 18.7667 1.4532 19.9992 2.97356 19.9992V18.9992ZM22.9226 17.2463C22.9226 18.2144 22.1378 18.9992 21.1697 18.9992V19.9992C22.6901 19.9992 23.9226 18.7667 23.9226 17.2463H22.9226ZM21.1697 2.84277C22.1378 2.84277 22.9226 3.62756 22.9226 4.59563H23.9226C23.9226 3.07527 22.6901 1.84277 21.1697 1.84277V2.84277ZM2.97356 1.84277C1.4532 1.84277 0.220703 3.07527 0.220703 4.59563H1.2207C1.2207 3.62756 2.00549 2.84277 2.97356 2.84277V1.84277ZM4.53324 18.9992H2.97356V19.9992H4.53324V18.9992ZM4.03324 19.4992V22.9651H5.03324V19.4992H4.03324ZM4.03324 22.9651C4.03324 23.3828 4.28013 23.7396 4.61339 23.9161C4.96814 24.1039 5.42174 24.0904 5.79872 23.7888L5.17402 23.0079C5.13794 23.0368 5.11675 23.0392 5.11162 23.0397C5.10433 23.0403 5.09435 23.0392 5.08128 23.0323C5.06707 23.0247 5.05344 23.0123 5.04414 22.9976C5.03532 22.9836 5.03324 22.9723 5.03324 22.9651H4.03324ZM21.1697 18.9992H9.4722V19.9992H21.1697V18.9992ZM5.83602 23.7558L9.82184 19.8566L9.12255 19.1417L5.13672 23.0409L5.83602 23.7558Z" fill="#0078F3"/>
</svg>
